<svg id="visual" viewBox="0 0 900 450" width="900" height="450" xmlns="http://www.w3.org/2000/svg" xmlns:xlink="http://www.w3.org/1999/xlink" version="1.1"><rect x="0" y="0" width="900" height="450" fill="#FFFFFF"></rect><defs><linearGradient id="grad1_0" x1="50%" y1="0%" x2="100%" y2="100%"><stop offset="10%" stop-color="#eb5e5e" stop-opacity="1"></stop><stop offset="90%" stop-color="#eb5e5e" stop-opacity="1"></stop></linearGradient></defs><defs><linearGradient id="grad1_1" x1="50%" y1="0%" x2="100%" y2="100%"><stop offset="10%" stop-color="#eb5e5e" stop-opacity="1"></stop><stop offset="90%" stop-color="#feb1ab" stop-opacity="1"></stop></linearGradient></defs><defs><linearGradient id="grad1_2" x1="50%" y1="0%" x2="100%" y2="100%"><stop offset="10%" stop-color="#ffffff" stop-opacity="1"></stop><stop offset="90%" stop-color="#feb1ab" stop-opacity="1"></stop></linearGradient></defs><defs><linearGradient id="grad2_0" x1="0%" y1="0%" x2="50%" y2="100%"><stop offset="10%" stop-color="#eb5e5e" stop-opacity="1"></stop><stop offset="90%" stop-color="#eb5e5e" stop-opacity="1"></stop></linearGradient></defs><defs><linearGradient id="grad2_1" x1="0%" y1="0%" x2="50%" y2="100%"><stop offset="10%" stop-color="#feb1ab" stop-opacity="1"></stop><stop offset="90%" stop-color="#eb5e5e" stop-opacity="1"></stop></linearGradient></defs><defs><linearGradient id="grad2_2" x1="0%" y1="0%" x2="50%" y2="100%"><stop offset="10%" stop-color="#feb1ab" stop-opacity="1"></stop><stop offset="90%" stop-color="#ffffff" stop-opacity="1"></stop></linearGradient></defs><g transform="translate(900, 0)"><path d="M0 315C-32.9 306.9 -65.7 298.7 -91.2 280.6C-116.6 262.4 -134.6 234.3 -155.8 214.4C-176.9 194.5 -201.2 182.9 -228.1 165.8C-255.1 148.6 -284.7 125.9 -299.6 97.3C-314.5 68.8 -314.8 34.4 -315 0L0 0Z" fill="#ffd8d4"></path><path d="M0 210C-21.9 204.6 -43.8 199.1 -60.8 187C-77.7 174.9 -89.7 156.2 -103.8 142.9C-117.9 129.7 -134.1 121.9 -152.1 110.5C-170.1 99.1 -189.8 83.9 -199.7 64.9C-209.7 45.9 -209.8 22.9 -210 0L0 0Z" fill="#f68984"></path><path d="M0 105C-11 102.3 -21.9 99.6 -30.4 93.5C-38.9 87.5 -44.9 78.1 -51.9 71.5C-59 64.8 -67.1 61 -76 55.3C-85 49.5 -94.9 42 -99.9 32.4C-104.8 22.9 -104.9 11.5 -105 0L0 0Z" fill="#eb5e5e"></path></g><g transform="translate(0, 450)"><path d="M0 -315C33.1 -307.4 66.3 -299.9 91.8 -282.5C117.3 -265 135.2 -237.8 159.9 -220.1C184.5 -202.4 216 -194.2 241.9 -175.7C267.8 -157.3 288.3 -128.4 299.6 -97.3C310.9 -66.3 312.9 -33.2 315 0L0 0Z" fill="#ffd8d4"></path><path d="M0 -210C22.1 -205 44.2 -199.9 61.2 -188.3C78.2 -176.7 90.1 -158.5 106.6 -146.7C123 -134.9 144 -129.5 161.3 -117.2C178.6 -104.8 192.2 -85.6 199.7 -64.9C207.2 -44.2 208.6 -22.1 210 0L0 0Z" fill="#f68984"></path><path d="M0 -105C11 -102.5 22.1 -100 30.6 -94.2C39.1 -88.3 45.1 -79.3 53.3 -73.4C61.5 -67.5 72 -64.7 80.6 -58.6C89.3 -52.4 96.1 -42.8 99.9 -32.4C103.6 -22.1 104.3 -11.1 105 0L0 0Z" fill="#eb5e5e"></path></g></svg>