<svg id="visual" viewBox="0 0 900 600" width="900" height="600" xmlns="http://www.w3.org/2000/svg" xmlns:xlink="http://www.w3.org/1999/xlink" version="1.1"><path d="M0 430L11.5 420.5C23 411 46 392 69 379.5C92 367 115 361 138.2 336.3C161.3 311.7 184.7 268.3 207.8 283.2C231 298 254 371 277 409.8C300 448.7 323 453.3 346 412C369 370.7 392 283.3 415.2 274.8C438.3 266.3 461.7 336.7 484.8 367.7C508 398.7 531 390.3 554 358.2C577 326 600 270 623 266.5C646 263 669 312 692.2 314.8C715.3 317.7 738.7 274.3 761.8 278C785 281.7 808 332.3 831 364.3C854 396.3 877 409.7 888.5 416.3L900 423" fill="none" stroke-linecap="round" stroke-linejoin="miter" stroke="#e75c5c" stroke-width="24"></path></svg>