<svg id="visual" viewBox="0 0 900 600" width="900" height="600" xmlns="http://www.w3.org/2000/svg" xmlns:xlink="http://www.w3.org/1999/xlink" version="1.1"><rect x="0" y="0" width="900" height="600" fill="#002233"></rect><path d="M0 55L16.7 51.5C33.3 48 66.7 41 100 43.7C133.3 46.3 166.7 58.7 200 58.3C233.3 58 266.7 45 300 44C333.3 43 366.7 54 400 62.2C433.3 70.3 466.7 75.7 500 77.2C533.3 78.7 566.7 76.3 600 68.2C633.3 60 666.7 46 700 41.8C733.3 37.7 766.7 43.3 800 47.5C833.3 51.7 866.7 54.3 883.3 55.7L900 57L900 0L883.3 0C866.7 0 833.3 0 800 0C766.7 0 733.3 0 700 0C666.7 0 633.3 0 600 0C566.7 0 533.3 0 500 0C466.7 0 433.3 0 400 0C366.7 0 333.3 0 300 0C266.7 0 233.3 0 200 0C166.7 0 133.3 0 100 0C66.7 0 33.3 0 16.7 0L0 0Z" fill="#e75c5c" stroke-linecap="round" stroke-linejoin="miter"></path></svg>