<svg id="visual" viewBox="0 0 960 540" width="960" height="540" xmlns="http://www.w3.org/2000/svg" xmlns:xlink="http://www.w3.org/1999/xlink" version="1.1"><path d="M0 31L22.8 37.3C45.7 43.7 91.3 56.3 137 61.8C182.7 67.3 228.3 65.7 274 64.5C319.7 63.3 365.3 62.7 411.2 65.3C457 68 503 74 548.8 74.7C594.7 75.3 640.3 70.7 686 66.2C731.7 61.7 777.3 57.3 823 59.2C868.7 61 914.3 69 937.2 73L960 77L960 0L937.2 0C914.3 0 868.7 0 823 0C777.3 0 731.7 0 686 0C640.3 0 594.7 0 548.8 0C503 0 457 0 411.2 0C365.3 0 319.7 0 274 0C228.3 0 182.7 0 137 0C91.3 0 45.7 0 22.8 0L0 0Z" fill="#f45656" stroke-linecap="round" stroke-linejoin="miter"></path></svg>