<?xml version="1.0" standalone="no"?>
<!DOCTYPE svg PUBLIC "-//W3C//DTD SVG 20010904//EN"
 "http://www.w3.org/TR/2001/REC-SVG-20010904/DTD/svg10.dtd">
<svg version="1.0" xmlns="http://www.w3.org/2000/svg"
 width="500.000000pt" height="500.000000pt" viewBox="0 0 500.000000 500.000000"
 preserveAspectRatio="xMidYMid meet">

<g transform="translate(0.000000,500.000000) scale(0.100000,-0.100000)"
fill="#000000" stroke="none">
<path d="M3230 4480 c-9 -6 -10 -10 -3 -10 6 0 15 5 18 10 8 12 4 12 -15 0z"/>
<path d="M3290 4469 c0 -5 5 -7 10 -4 6 3 10 8 10 11 0 2 -4 4 -10 4 -5 0 -10
-5 -10 -11z"/>
<path d="M3352 4455 c-9 -20 -9 -23 3 -18 8 3 15 0 15 -6 0 -6 5 -11 11 -11 5
0 8 4 5 9 -10 16 5 41 24 41 29 0 34 -19 7 -25 -13 -4 -24 -13 -24 -21 0 -10
7 -14 18 -11 9 3 23 1 30 -4 11 -7 11 -9 -2 -9 -19 0 -35 -30 -16 -31 7 0 22
-2 34 -5 12 -2 24 0 27 5 3 5 -2 8 -11 7 -10 0 -17 7 -18 22 -2 24 14 29 33
10 6 -6 15 -9 19 -5 3 4 -2 14 -13 22 -28 21 -4 18 34 -5 44 -27 41 -17 -5 15
-43 29 -53 31 -53 11 0 -16 -27 -29 -41 -20 -5 3 1 14 13 25 13 12 18 18 11
15 -6 -4 -14 -2 -18 4 -3 5 -21 10 -39 10 -25 0 -35 -6 -44 -25z"/>
<path d="M3234 4455 c-12 -9 -13 -13 -4 -10 11 4 16 -1 16 -14 0 -16 -3 -18
-16 -8 -8 7 -7 2 4 -10 14 -17 21 -19 30 -10 20 20 25 44 13 56 -14 14 -19 14
-43 -4z"/>
<path d="M3195 4431 c-3 -5 -2 -12 3 -15 5 -3 9 1 9 9 0 17 -3 19 -12 6z"/>
<path d="M3149 4393 l-24 -28 28 24 c25 23 32 31 24 31 -2 0 -14 -12 -28 -27z"/>
<path d="M3215 4380 c-3 -5 -1 -10 4 -10 6 0 11 5 11 10 0 6 -2 10 -4 10 -3 0
-8 -4 -11 -10z"/>
<path d="M3540 4380 c-9 -6 -10 -10 -3 -10 6 0 15 5 18 10 8 12 4 12 -15 0z"/>
<path d="M3578 4378 c9 -11 10 -18 2 -23 -5 -3 -10 -11 -10 -18 0 -8 3 -8 12
1 9 9 15 9 26 -1 13 -10 14 -9 4 9 -6 11 -19 27 -29 35 -16 13 -17 12 -5 -3z"/>
<path d="M1750 4367 l35 -12 0 -180 0 -180 -35 -12 c-30 -10 -9 -12 138 -12
130 -1 174 2 176 12 3 6 7 32 10 57 5 44 5 44 -7 13 -22 -58 -36 -65 -138 -67
l-94 -1 -3 98 -3 97 49 0 c51 0 75 -16 85 -55 2 -11 5 16 5 60 1 74 0 78 -11
45 -12 -34 -14 -35 -69 -38 l-58 -3 0 85 c0 84 1 86 26 92 39 10 142 -2 169
-20 15 -10 28 -32 34 -58 9 -40 10 -39 4 17 -3 33 -7 62 -9 65 -1 3 -78 6
-171 7 -140 1 -162 -1 -133 -10z"/>
<path d="M2385 4374 c11 -3 27 -8 35 -11 8 -3 20 -6 25 -5 6 1 41 -79 78 -177
82 -212 83 -214 95 -181 6 16 5 32 -5 49 -7 14 -39 94 -71 176 l-57 150 -60 2
c-33 1 -51 -1 -40 -3z"/>
<path d="M2756 4364 c-3 -8 -2 -12 4 -9 6 4 10 -59 10 -179 0 -167 -2 -185
-17 -189 -10 -3 7 -5 37 -5 30 0 47 2 38 5 -16 4 -18 22 -18 188 l0 184 33 10
c30 8 28 9 -24 10 -43 1 -58 -3 -63 -15z"/>
<path d="M3206 4330 c-9 -17 -14 -30 -9 -30 8 0 35 51 30 56 -2 2 -11 -10 -21
-26z"/>
<path d="M3151 4333 c8 -13 16 -23 19 -23 3 0 11 10 19 23 13 20 13 21 -2 8
-14 -11 -20 -11 -34 0 -15 13 -15 12 -2 -8z"/>
<path d="M3460 4340 c-8 -5 -10 -10 -5 -10 6 0 17 5 25 10 8 5 11 10 5 10 -5
0 -17 -5 -25 -10z"/>
<path d="M3084 4293 c-9 -20 -13 -44 -11 -55 3 -10 1 -20 -3 -23 -4 -3 -6 -14
-3 -25 5 -19 6 -19 18 -4 8 11 21 15 38 12 23 -5 27 -2 27 19 0 22 -2 23 -15
9 -9 -8 -22 -13 -30 -10 -17 7 -20 44 -4 44 8 0 8 4 0 14 -10 12 -8 19 8 35
17 17 18 21 5 21 -8 0 -22 -16 -30 -37z"/>
<path d="M3451 4304 c0 -11 3 -14 6 -6 3 7 2 16 -1 19 -3 4 -6 -2 -5 -13z"/>
<path d="M3601 4299 c-12 -11 -29 -18 -37 -15 -12 5 -12 2 -4 -15 9 -15 8 -24
-2 -37 -12 -15 -11 -16 5 -3 9 7 17 19 17 27 0 16 40 45 52 38 4 -3 5 2 2 10
-8 20 -6 20 -33 -5z"/>
<path d="M3500 4299 c0 -5 5 -7 10 -4 6 3 10 8 10 11 0 2 -4 4 -10 4 -5 0 -10
-5 -10 -11z"/>
<path d="M3461 4281 c-7 -5 -9 -11 -5 -14 5 -3 15 1 22 9 14 16 5 18 -17 5z"/>
<path d="M3121 4258 c0 -16 2 -18 6 -8 3 8 11 18 17 22 7 5 4 8 -6 8 -12 0
-18 -7 -17 -22z"/>
<path d="M3626 4254 c-16 -11 -22 -11 -29 -1 -6 9 -7 8 -4 -3 2 -8 12 -14 21
-14 12 1 15 -3 11 -17 -4 -12 -1 -21 9 -25 9 -3 16 -16 16 -28 0 -17 -2 -18
-10 -6 -7 11 -9 1 -7 -32 3 -66 15 -45 23 40 6 66 5 72 -12 72 -16 0 -16 2 -4
10 8 5 12 11 10 14 -3 2 -14 -2 -24 -10z m17 -39 c-3 -9 -8 -14 -10 -11 -3 3
-2 9 2 15 9 16 15 13 8 -4z"/>
<path d="M3516 4251 c3 -3 -6 -11 -18 -18 -17 -9 -19 -12 -6 -13 9 0 23 -3 32
-6 9 -3 16 -1 16 6 0 6 -6 8 -12 5 -7 -4 -2 2 12 13 l24 20 -26 -1 c-15 -1
-24 -4 -22 -6z"/>
<path d="M2155 4210 c-41 -45 -11 -101 62 -115 56 -10 83 -31 83 -63 0 -16 -3
-32 -7 -38 -5 -5 0 -1 10 9 38 42 7 108 -58 122 -83 18 -107 44 -78 84 18 27
12 27 -12 1z"/>
<path d="M2287 4223 c-2 -5 2 -21 9 -38 l13 -30 1 38 c0 33 -12 49 -23 30z"/>
<path d="M3088 4169 c-3 -9 -2 -22 2 -30 13 -19 18 -8 10 21 -4 19 -7 21 -12
9z"/>
<path d="M3163 4163 c9 -2 23 -2 30 0 6 3 -1 5 -18 5 -16 0 -22 -2 -12 -5z"/>
<path d="M3125 4120 c3 -5 16 -15 28 -21 l22 -11 -22 21 c-23 22 -39 28 -28
11z"/>
<path d="M3198 4123 c6 -2 18 -2 25 0 6 3 1 5 -13 5 -14 0 -19 -2 -12 -5z"/>
<path d="M3051 4090 c-1 -26 58 -172 72 -178 4 -2 5 -8 1 -13 -3 -5 -1 -9 4
-9 5 0 9 -6 9 -12 1 -31 43 -107 62 -113 24 -7 27 -20 9 -29 -7 -3 -4 -5 6 -3
27 3 31 24 7 32 -12 4 -37 43 -70 111 -28 58 -51 111 -51 118 0 6 -6 21 -14
32 -8 11 -19 36 -24 55 -9 29 -10 30 -11 9z"/>
<path d="M3315 4093 c-19 -15 -19 -15 5 -8 14 4 35 7 48 7 29 0 21 10 -11 13
-12 2 -32 -4 -42 -12z"/>
<path d="M3032 4070 c0 -14 2 -19 5 -12 2 6 2 18 0 25 -3 6 -5 1 -5 -13z"/>
<path d="M3250 4073 l-35 -14 34 6 c34 5 49 12 40 18 -2 2 -20 -3 -39 -10z"/>
<path d="M3385 4071 c-9 -9 -5 -18 8 -18 7 0 18 6 25 13 9 10 7 12 -9 11 -11
-1 -22 -3 -24 -6z"/>
<path d="M2134 4017 c1 -38 3 -43 17 -34 14 9 15 15 6 36 -18 44 -24 44 -23
-2z"/>
<path d="M3188 4053 c7 -3 16 -2 19 1 4 3 -2 6 -13 5 -11 0 -14 -3 -6 -6z"/>
<path d="M3310 4040 c-18 -12 -2 -12 25 0 13 6 15 9 5 9 -8 0 -22 -4 -30 -9z"/>
<path d="M3027 4033 c-11 -10 -8 -25 3 -18 6 3 14 -4 19 -17 11 -26 14 -14 5
20 -6 22 -15 27 -27 15z"/>
<path d="M3250 4020 c-18 -12 -2 -12 25 0 13 6 15 9 5 9 -8 0 -22 -4 -30 -9z"/>
<path d="M3400 4020 c-11 -7 -11 -10 -2 -10 7 0 10 -5 6 -12 -4 -7 -3 -8 5 -4
6 4 9 11 6 16 -3 4 1 11 7 13 7 3 9 6 3 6 -5 0 -17 -4 -25 -9z"/>
<path d="M2434 4007 c-5 -8 -18 -17 -29 -20 -11 -2 1 -5 27 -6 25 0 55 -3 65
-6 10 -3 5 1 -10 8 -16 8 -32 20 -37 27 -6 10 -9 9 -16 -3z"/>
<path d="M3205 4010 c3 -5 8 -10 11 -10 2 0 4 5 4 10 0 6 -5 10 -11 10 -5 0
-7 -4 -4 -10z"/>
<path d="M3330 4000 c-12 -8 -11 -10 7 -10 12 0 25 5 28 10 8 13 -15 13 -35 0z"/>
<path d="M3275 3980 c-8 -13 5 -13 25 0 13 8 13 10 -2 10 -9 0 -20 -4 -23 -10z"/>
<path d="M3360 3964 c-19 -8 -43 -13 -53 -10 -10 2 -17 0 -14 -7 4 -12 47 -18
47 -6 0 12 40 18 40 6 0 -7 5 -4 11 6 15 26 9 28 -31 11z"/>
<path d="M3310 3921 c0 -17 27 -31 60 -30 l35 1 -27 10 c-16 5 -28 13 -28 17
0 4 -9 7 -20 8 -11 1 -20 -2 -20 -6z"/>
<path d="M3471 3911 c-8 -5 -9 -11 -3 -15 5 -3 12 1 16 9 6 17 6 18 -13 6z"/>
<path d="M3270 3900 c8 -5 20 -10 25 -10 6 0 3 5 -5 10 -8 5 -19 10 -25 10 -5
0 -3 -5 5 -10z"/>
<path d="M1900 3850 c0 -22 3 -40 8 -40 4 0 6 18 4 40 -2 22 -6 40 -8 40 -2 0
-4 -18 -4 -40z"/>
<path d="M2012 3850 c-1 -36 1 -41 8 -22 5 12 14 22 19 22 5 0 12 -10 14 -22
4 -16 5 -13 4 7 -2 22 -6 29 -19 27 -9 -1 -19 5 -21 15 -3 10 -5 -2 -5 -27z"/>
<path d="M1700 3845 c0 -32 2 -35 28 -34 23 2 24 2 5 6 -27 5 -30 20 -5 26 16
4 16 5 0 6 -26 2 -22 19 5 24 19 4 18 4 -5 6 -26 1 -28 -2 -28 -34z"/>
<path d="M2107 3873 c-12 -12 -7 -22 13 -28 26 -8 26 -29 0 -22 -11 3 -18 1
-14 -4 9 -14 41 -10 48 6 3 9 -3 19 -17 26 -21 12 -21 12 -2 20 19 7 19 8 -1
8 -11 1 -24 -2 -27 -6z"/>
<path d="M2480 3846 c0 -28 4 -36 18 -36 13 0 14 2 3 9 -8 5 -11 16 -7 29 4
11 2 23 -4 27 -6 4 -10 -7 -10 -29z"/>
<path d="M2551 3843 c1 -25 3 -30 6 -15 4 18 8 21 18 12 10 -8 15 -8 21 2 6 9
10 6 15 -12 6 -21 7 -19 8 13 1 39 -12 50 -24 20 -6 -17 -7 -17 -19 0 -20 26
-26 21 -25 -20z"/>
<path d="M1778 3863 c-12 -3 -18 -14 -17 -31 0 -26 1 -26 9 -4 5 12 14 22 19
22 5 0 12 -10 14 -22 4 -20 4 -20 6 4 1 30 -6 36 -31 31z"/>
<path d="M1964 3858 c-4 -6 1 -17 10 -24 13 -9 14 -13 4 -17 -10 -3 -9 -4 1
-3 21 1 26 26 6 26 -11 0 -15 5 -11 15 6 18 0 20 -10 3z"/>
<path d="M2253 3863 c-8 -3 -12 -20 -12 -41 1 -27 3 -30 6 -12 7 46 13 54 25
42 8 -8 8 -16 -3 -28 -12 -15 -12 -17 1 -12 8 2 16 14 18 25 3 21 -14 33 -35
26z"/>
<path d="M2671 3856 c-9 -11 -8 -15 6 -20 15 -6 15 -8 3 -16 -13 -8 -12 -10 2
-10 23 0 33 19 13 26 -9 4 -14 13 -11 20 7 18 2 18 -13 0z"/>
<path d="M2725 3859 c-4 -6 -5 -12 -2 -15 2 -3 7 2 10 11 7 17 1 20 -8 4z"/>
<path d="M2811 3860 c-19 -11 -9 -45 14 -45 13 0 21 8 23 21 3 23 -17 37 -37
24z m29 -26 c0 -8 -7 -14 -15 -14 -15 0 -21 21 -9 33 10 9 24 -2 24 -19z"/>
<path d="M2883 3863 c-7 -3 -13 -17 -12 -31 0 -15 3 -20 6 -12 14 43 16 44 23
15 l8 -30 1 27 c1 29 -7 38 -26 31z"/>
<path d="M1832 3838 c2 -15 9 -22 21 -22 24 2 22 -14 -3 -19 -17 -4 -16 -4 2
-3 18 1 24 8 26 34 2 17 -1 32 -6 32 -5 0 -9 -7 -8 -16 0 -9 -5 -19 -13 -22
-10 -3 -12 1 -8 17 3 11 1 21 -5 21 -5 0 -8 -10 -6 -22z"/>
<path d="M1932 3835 c0 -16 2 -22 5 -12 2 9 2 23 0 30 -3 6 -5 -1 -5 -18z"/>
<path d="M2171 3838 c-1 -24 3 -27 24 -26 20 2 25 8 24 28 0 25 0 25 -9 3 -5
-13 -14 -23 -19 -23 -5 0 -12 10 -14 23 -4 19 -4 18 -6 -5z"/>
<path d="M2301 3823 c1 -21 3 -31 6 -22 3 11 11 15 23 12 23 -6 39 22 22 39
-7 7 -10 4 -9 -8 1 -11 -4 -19 -13 -19 -8 0 -14 8 -14 18 1 9 -2 17 -7 17 -5
0 -8 -17 -8 -37z"/>
<path d="M2377 3853 c-12 -11 -7 -33 8 -39 20 -8 45 13 38 32 -8 22 -22 16
-16 -7 4 -16 2 -20 -8 -17 -8 3 -13 13 -13 22 2 18 0 19 -9 9z"/>
<path d="M2441 3833 c1 -22 2 -23 6 -8 3 11 10 23 17 27 7 5 5 8 -6 8 -13 0
-18 -7 -17 -27z"/>
<path d="M2642 3835 c0 -16 2 -22 5 -12 2 9 2 23 0 30 -3 6 -5 -1 -5 -18z"/>
<path d="M2772 3835 c0 -16 2 -22 5 -12 2 9 2 23 0 30 -3 6 -5 -1 -5 -18z"/>
<path d="M3280 3840 c13 -9 13 -11 0 -20 -11 -7 -4 -10 28 -10 30 0 42 4 42
14 0 8 6 17 13 19 6 3 -13 6 -43 6 -39 1 -51 -2 -40 -9z"/>
<path d="M3399 3829 c-9 -18 -8 -20 12 -17 27 4 36 23 15 31 -10 4 -20 -2 -27
-14z"/>
<path d="M2745 3831 c3 -5 -3 -12 -12 -14 -14 -4 -13 -5 5 -6 13 -1 22 5 22
14 0 8 -5 15 -11 15 -5 0 -8 -4 -4 -9z"/>
<path d="M3100 3810 c0 -11 4 -20 9 -20 5 0 7 9 4 20 -3 11 -7 20 -9 20 -2 0
-4 -9 -4 -20z"/>
<path d="M3505 3799 c-4 -6 -5 -13 -2 -16 7 -7 27 6 27 18 0 12 -17 12 -25 -2z"/>
<path d="M3123 3783 c-10 -4 -9 -9 3 -20 18 -18 24 -15 15 8 -3 9 -12 14 -18
12z"/>
<path d="M3435 3760 c-30 -5 -34 -8 -15 -10 14 -1 28 -2 33 -1 12 2 8 -17 -5
-23 -7 -3 -4 -5 7 -3 11 1 20 8 20 15 0 7 7 17 15 22 18 12 9 12 -55 0z"/>
<path d="M3247 3740 c-3 -11 -1 -20 5 -20 14 0 38 26 31 34 -13 12 -31 5 -36
-14z"/>
<path d="M3300 3750 c0 -5 7 -7 15 -4 8 4 15 8 15 10 0 2 -7 4 -15 4 -8 0 -15
-4 -15 -10z"/>
</g>
</svg>
