<?xml version="1.0" standalone="no"?>
<!DOCTYPE svg PUBLIC "-//W3C//DTD SVG 20010904//EN"
 "http://www.w3.org/TR/2001/REC-SVG-20010904/DTD/svg10.dtd">
<svg version="1.0" xmlns="http://www.w3.org/2000/svg"
 width="500.000000pt" height="500.000000pt" viewBox="0 0 500.000000 500.000000"
 preserveAspectRatio="xMidYMid meet">

<g transform="translate(0.000000,500.000000) scale(0.100000,-0.100000)"
fill="#000000" stroke="none">
<path d="M3230 4480 c-9 -6 -10 -10 -3 -10 6 0 15 5 18 10 8 12 4 12 -15 0z"/>
<path d="M3290 4469 c0 -5 5 -7 10 -4 6 3 10 8 10 11 0 2 -4 4 -10 4 -5 0 -10
-5 -10 -11z"/>
<path d="M3352 4456 c-7 -16 -8 -25 -2 -21 6 3 17 -1 26 -9 20 -20 43 -20 50
-1 9 23 44 40 44 21 0 -8 -9 -18 -21 -21 -11 -4 -18 -9 -15 -12 3 -3 -2 -12
-10 -20 -18 -19 -17 -20 23 -28 18 -3 35 0 38 6 4 6 0 9 -11 7 -14 -2 -18 2
-16 17 5 28 9 30 27 15 9 -7 18 -10 22 -6 4 3 -2 13 -13 21 -29 22 -4 18 36
-6 26 -16 31 -17 20 -4 -22 26 -87 56 -139 62 -43 5 -48 3 -59 -21z m73 4 c3
-6 -4 -14 -17 -19 -28 -10 -30 -9 -22 13 7 18 29 21 39 6z"/>
<path d="M3234 4454 c-18 -15 -18 -15 3 -5 31 16 35 14 16 -7 -10 -11 -22 -17
-28 -14 -5 3 -1 -4 9 -16 l19 -22 18 22 c22 25 23 30 7 46 -16 16 -20 15 -44
-4z"/>
<path d="M3195 4431 c-3 -5 -2 -12 3 -15 5 -3 9 1 9 9 0 17 -3 19 -12 6z"/>
<path d="M3149 4393 l-24 -28 28 24 c25 23 32 31 24 31 -2 0 -14 -12 -28 -27z"/>
<path d="M3215 4380 c-3 -5 -1 -10 4 -10 6 0 11 5 11 10 0 6 -2 10 -4 10 -3 0
-8 -4 -11 -10z"/>
<path d="M3524 4378 c10 -6 22 -6 26 -2 5 5 -3 10 -18 11 -22 1 -24 0 -8 -9z"/>
<path d="M3579 4378 c8 -11 9 -18 1 -23 -5 -3 -10 -11 -10 -17 0 -7 4 -7 14 1
10 9 16 8 26 -4 11 -13 9 -19 -9 -36 -12 -12 -29 -18 -37 -15 -12 5 -12 2 -3
-16 9 -17 9 -23 0 -26 -6 -2 -11 -8 -11 -14 0 -6 6 -6 15 2 8 7 15 18 15 26 0
15 40 45 51 39 18 -12 -6 36 -33 66 -17 19 -25 27 -19 17z"/>
<path d="M1750 4367 l35 -12 0 -180 0 -180 -35 -12 c-30 -10 -10 -12 137 -12
94 -1 174 2 176 7 3 4 7 30 11 57 6 48 6 49 -8 20 -22 -50 -48 -65 -119 -72
-35 -3 -77 -3 -91 1 -26 6 -26 7 -26 101 l0 95 39 0 c55 0 71 -8 87 -44 12
-29 13 -27 13 49 -1 62 -3 73 -9 51 -12 -38 -25 -46 -82 -46 l-48 0 0 85 c0
83 1 85 26 91 39 10 142 -2 169 -20 15 -10 28 -32 34 -58 l11 -43 -5 40 c-3
22 -5 52 -5 68 l0 27 -172 -1 c-148 0 -168 -2 -138 -12z"/>
<path d="M2385 4374 c11 -3 27 -8 35 -11 8 -3 20 -6 25 -5 6 1 41 -79 78 -177
82 -212 81 -211 96 -182 7 12 8 27 4 34 -4 6 -37 86 -73 177 l-65 165 -60 2
c-33 1 -51 -1 -40 -3z"/>
<path d="M2756 4364 c-3 -8 -2 -12 4 -9 6 4 10 -59 10 -179 0 -167 -2 -185
-17 -189 -10 -3 7 -5 37 -6 42 0 51 2 38 10 -16 9 -18 29 -18 189 l0 179 33
10 c30 8 28 9 -24 10 -43 1 -58 -3 -63 -15z"/>
<path d="M3206 4330 c-9 -17 -14 -30 -9 -30 8 0 35 51 30 56 -2 2 -11 -10 -21
-26z"/>
<path d="M3151 4333 c8 -13 16 -23 19 -23 3 0 11 10 19 23 13 20 13 21 -2 8
-14 -11 -20 -11 -34 0 -15 13 -15 12 -2 -8z"/>
<path d="M3463 4343 c-15 -6 -17 -69 -3 -78 6 -3 10 -1 10 6 0 7 8 9 21 6 12
-3 18 -3 15 0 -3 4 -1 12 5 20 8 9 8 13 1 13 -6 0 -14 -4 -17 -10 -3 -5 -13
-10 -21 -10 -20 0 -18 37 4 49 17 11 7 13 -15 4z"/>
<path d="M3084 4294 c-8 -20 -14 -43 -12 -52 1 -10 0 -21 -4 -27 -13 -21 22
-80 63 -103 38 -22 39 -22 27 -3 -7 12 -16 21 -20 21 -3 0 -9 8 -11 18 -4 16
-5 16 -6 -1 -1 -24 -21 -11 -21 14 0 12 -4 17 -11 13 -7 -4 -10 -1 -7 7 3 8
18 14 36 14 28 0 32 3 31 25 0 14 -3 19 -6 13 -2 -7 -11 -13 -19 -13 -8 0 -14
6 -14 13 0 8 -4 7 -10 -3 -8 -12 -10 -11 -10 8 0 12 5 22 11 22 8 0 8 4 0 14
-10 12 -8 19 8 35 17 17 18 21 5 21 -8 0 -22 -16 -30 -36z"/>
<path d="M3170 4290 c0 -5 5 -10 11 -10 5 0 7 5 4 10 -3 6 -8 10 -11 10 -2 0
-4 -4 -4 -10z"/>
<path d="M3121 4258 c0 -16 2 -18 6 -8 3 8 11 18 17 22 7 5 4 8 -6 8 -12 0
-18 -7 -17 -22z"/>
<path d="M3625 4261 c-14 -17 -21 -19 -28 -9 -6 10 -8 10 -5 -1 3 -8 8 -16 14
-18 14 -4 47 24 42 37 -2 7 -11 3 -23 -9z"/>
<path d="M3476 4245 c-7 -18 16 -30 40 -21 8 3 12 2 9 -4 -3 -6 -3 -10 2 -10
4 0 13 11 19 24 10 21 9 24 -12 22 -12 0 -20 -4 -18 -7 2 -4 -3 -10 -12 -13
-22 -9 -24 -8 -18 9 4 8 4 15 1 15 -3 0 -8 -7 -11 -15z"/>
<path d="M2218 4233 c7 -3 16 -2 19 1 4 3 -2 6 -13 5 -11 0 -14 -3 -6 -6z"/>
<path d="M2293 4228 c-7 -9 -6 -23 3 -43 l13 -30 1 43 c0 45 -2 49 -17 30z"/>
<path d="M3634 4224 c3 -8 2 -12 -4 -9 -6 3 -10 -1 -10 -9 0 -9 7 -16 15 -16
8 0 15 -7 15 -16 0 -8 -4 -13 -9 -10 -5 3 -8 -16 -8 -43 3 -69 17 -38 24 50 5
61 4 69 -12 69 -11 0 -15 -5 -11 -16z"/>
<path d="M2155 4210 c-41 -45 -11 -101 62 -115 56 -10 83 -31 83 -63 0 -16 -6
-34 -12 -42 -7 -8 -3 -6 10 4 47 40 17 116 -53 131 -83 18 -107 44 -78 84 18
27 12 27 -12 1z"/>
<path d="M3163 4163 c9 -2 23 -2 30 0 6 3 -1 5 -18 5 -16 0 -22 -2 -12 -5z"/>
<path d="M3198 4123 c6 -2 18 -2 25 0 6 3 1 5 -13 5 -14 0 -19 -2 -12 -5z"/>
<path d="M3044 4096 c-14 -15 -26 -88 -13 -81 5 4 14 -4 19 -17 10 -23 11 -23
5 2 -17 78 -12 76 25 -10 22 -52 44 -97 48 -100 4 -3 9 -14 10 -25 2 -11 10
-32 18 -47 11 -22 12 -28 2 -29 -7 0 1 -7 19 -15 34 -15 52 -34 31 -34 -9 0
-9 -3 2 -10 10 -6 17 -5 23 6 10 17 1 34 -17 34 -18 0 -92 151 -150 306 -8 23
-14 28 -22 20z"/>
<path d="M3326 4103 c-4 -4 -31 -15 -59 -25 -29 -9 -45 -17 -36 -17 9 -1 42 8
74 18 32 11 65 17 74 14 14 -4 14 -3 1 6 -17 12 -43 14 -54 4z"/>
<path d="M3385 4071 c-11 -10 -3 -17 20 -17 14 0 25 6 25 12 0 12 -35 15 -45
5z"/>
<path d="M2130 4017 c0 -44 1 -46 19 -35 16 10 17 16 8 37 -19 46 -27 46 -27
-2z"/>
<path d="M3180 4050 c0 -5 7 -7 15 -4 8 4 15 8 15 10 0 2 -7 4 -15 4 -8 0 -15
-4 -15 -10z"/>
<path d="M3310 4040 c-18 -12 -2 -12 25 0 13 6 15 9 5 9 -8 0 -22 -4 -30 -9z"/>
<path d="M3600 4020 c-12 -16 -19 -30 -16 -30 2 0 14 14 26 30 12 17 19 30 16
30 -2 0 -14 -13 -26 -30z"/>
<path d="M3250 4020 c-18 -12 -2 -12 25 0 13 6 15 9 5 9 -8 0 -22 -4 -30 -9z"/>
<path d="M3400 4020 c-11 -7 -11 -10 -2 -10 7 0 10 -4 7 -10 -3 -5 -4 -10 -1
-10 3 0 10 9 16 20 12 22 4 25 -20 10z"/>
<path d="M2430 4010 c0 -5 -14 -16 -31 -22 -28 -12 -26 -13 41 -13 67 0 69 1
41 13 -17 6 -31 17 -31 22 0 6 -4 10 -10 10 -5 0 -10 -4 -10 -10z"/>
<path d="M3205 4010 c3 -5 8 -10 11 -10 2 0 4 5 4 10 0 6 -5 10 -11 10 -5 0
-7 -4 -4 -10z"/>
<path d="M3330 4000 c-12 -8 -11 -10 7 -10 12 0 25 5 28 10 8 13 -15 13 -35 0z"/>
<path d="M3270 3985 c0 -16 34 -54 43 -48 6 3 7 1 3 -6 -13 -20 14 -41 53 -40
20 1 28 3 18 6 -11 3 -16 11 -13 19 4 11 -1 13 -19 10 -17 -3 -22 -1 -19 9 7
17 44 27 44 12 0 -12 20 12 20 25 0 4 -20 0 -45 -10 -36 -13 -47 -14 -57 -4
-10 10 -10 15 2 22 12 8 10 10 -7 10 -13 0 -23 -2 -23 -5z"/>
<path d="M3469 3912 c-14 -6 -14 -9 -4 -19 10 -9 14 -8 18 8 3 10 4 19 4 18
-1 0 -9 -3 -18 -7z"/>
<path d="M3270 3900 c8 -5 22 -10 30 -10 13 0 13 1 0 10 -8 5 -22 10 -30 10
-13 0 -13 -1 0 -10z"/>
<path d="M3081 3884 c0 -11 3 -14 6 -6 3 7 2 16 -1 19 -3 4 -6 -2 -5 -13z"/>
<path d="M1700 3850 c0 -37 2 -40 28 -39 23 2 24 2 5 6 -27 5 -31 23 -6 23 15
0 14 2 -3 15 -19 14 -18 14 4 15 12 0 22 5 22 10 0 6 -11 10 -25 10 -22 0 -25
-4 -25 -40z"/>
<path d="M1900 3850 c0 -22 3 -40 8 -40 4 0 6 18 4 40 -2 22 -6 40 -8 40 -2 0
-4 -18 -4 -40z"/>
<path d="M1933 3850 c0 -25 2 -35 4 -22 2 12 2 32 0 45 -2 12 -4 2 -4 -23z"/>
<path d="M2010 3853 c0 -24 5 -43 10 -43 6 0 10 9 10 20 0 27 17 25 23 -2 4
-17 5 -16 4 5 -1 15 -5 26 -9 25 -4 -2 -14 6 -22 17 -15 19 -15 18 -16 -22z"/>
<path d="M2113 3883 c-20 -7 -15 -31 7 -38 11 -3 20 -11 20 -16 0 -6 -9 -7
-21 -4 -15 5 -19 4 -15 -4 9 -14 43 -14 52 0 4 7 -4 20 -17 30 -20 16 -21 19
-6 19 10 0 15 5 12 10 -7 11 -13 11 -32 3z"/>
<path d="M2552 3850 c0 -35 2 -39 7 -20 6 23 7 24 15 5 l7 -20 12 20 c11 19
11 19 18 -5 5 -20 7 -15 8 20 l1 45 -18 -23 -18 -24 -17 24 c-16 23 -16 22
-15 -22z"/>
<path d="M2643 3850 c0 -25 2 -35 4 -22 2 12 2 32 0 45 -2 12 -4 2 -4 -23z"/>
<path d="M2480 3846 c0 -27 4 -36 16 -36 13 0 14 3 5 14 -6 7 -9 20 -5 29 3 8
1 18 -5 22 -7 4 -11 -7 -11 -29z"/>
<path d="M1760 3838 c0 -15 5 -28 10 -28 6 0 10 9 10 20 0 27 17 25 23 -2 4
-16 5 -14 4 6 -2 23 -7 30 -24 31 -19 1 -23 -3 -23 -27z"/>
<path d="M1830 3856 c-15 -20 -1 -49 21 -43 11 3 19 1 19 -3 0 -5 -9 -11 -20
-13 -17 -4 -16 -4 2 -3 19 1 24 8 26 36 2 30 -1 36 -17 37 -11 1 -25 -4 -31
-11z m38 -18 c-6 -18 -28 -21 -28 -4 0 9 7 16 16 16 9 0 14 -5 12 -12z"/>
<path d="M1964 3858 c-4 -6 1 -17 10 -24 13 -9 14 -13 4 -17 -10 -3 -9 -4 1
-3 20 1 26 26 7 26 -19 0 -21 16 -3 23 9 4 9 6 0 6 -6 1 -15 -4 -19 -11z"/>
<path d="M2171 3843 c-1 -29 2 -33 24 -31 20 2 25 8 25 31 0 16 -4 26 -10 22
-5 -3 -10 -15 -10 -26 0 -29 -18 -23 -23 9 -4 25 -4 25 -6 -5z"/>
<path d="M2248 3862 c-13 -2 -18 -13 -18 -38 0 -19 5 -34 10 -34 6 0 10 4 10
9 0 5 9 11 20 14 12 3 20 14 20 25 0 22 -15 30 -42 24z m30 -24 c-6 -18 -28
-21 -28 -4 0 9 7 16 16 16 9 0 14 -5 12 -12z"/>
<path d="M2300 3828 c0 -21 5 -38 10 -38 6 0 10 5 10 10 0 6 7 10 15 10 21 0
30 27 15 44 -6 8 -20 14 -31 13 -15 -1 -19 -9 -19 -39z m42 7 c0 -5 -5 -11
-11 -13 -6 -2 -11 4 -11 13 0 9 5 15 11 13 6 -2 11 -8 11 -13z"/>
<path d="M2383 3863 c-18 -7 -16 -42 3 -50 8 -3 23 1 31 10 13 13 14 19 3 31
-13 17 -17 18 -37 9z m27 -29 c0 -17 -22 -14 -28 4 -2 7 3 12 12 12 9 0 16 -7
16 -16z"/>
<path d="M2441 3836 c1 -24 3 -26 6 -8 2 12 9 22 14 22 5 0 9 4 9 8 0 5 -7 9
-15 9 -10 0 -15 -10 -14 -31z"/>
<path d="M2664 3859 c-4 -7 1 -16 11 -21 14 -8 15 -12 4 -19 -11 -7 -11 -9 3
-9 23 0 33 19 14 26 -9 3 -16 10 -16 16 0 5 5 6 12 2 7 -4 8 -3 4 4 -9 15 -23
15 -32 1z"/>
<path d="M2724 3858 c-4 -6 1 -17 10 -24 16 -12 16 -13 -1 -17 -14 -4 -14 -5
5 -6 26 -1 29 16 5 36 -17 14 -17 14 0 9 11 -3 16 -2 12 4 -8 13 -22 13 -31
-2z"/>
<path d="M2770 3841 c0 -17 5 -31 10 -31 6 0 10 11 10 24 0 14 -4 28 -10 31
-6 4 -10 -7 -10 -24z"/>
<path d="M2811 3860 c-19 -11 -9 -45 14 -45 13 0 21 8 23 21 3 23 -17 37 -37
24z m27 -21 c-2 -6 -8 -10 -13 -10 -5 0 -11 4 -13 10 -2 6 4 11 13 11 9 0 15
-5 13 -11z"/>
<path d="M2878 3863 c-19 -5 -26 -53 -8 -53 6 0 10 9 10 20 0 11 5 20 10 20 6
0 10 -9 10 -20 0 -11 5 -20 10 -20 6 0 10 6 10 14 0 20 -11 46 -19 45 -3 -1
-14 -3 -23 -6z"/>
<path d="M3270 3839 l25 -12 -25 -7 c-19 -6 -13 -8 28 -9 38 -1 52 3 52 13 0
8 9 13 23 12 12 -1 21 -7 20 -13 -3 -12 54 -29 64 -19 4 3 -1 6 -10 6 -10 0
-14 6 -11 14 7 19 -8 22 -106 24 -70 1 -81 0 -60 -9z"/>
<path d="M3098 3818 c-4 -8 4 -27 17 -41 27 -32 35 -34 28 -7 -3 11 -9 18 -13
15 -5 -3 -12 7 -17 22 -7 20 -11 23 -15 11z"/>
<path d="M3510 3805 c-18 -21 -3 -32 16 -13 10 9 12 18 6 22 -5 3 -15 -1 -22
-9z"/>
<path d="M3430 3760 c-26 -4 -34 -8 -20 -9 29 -2 65 -21 41 -21 -8 0 -12 -3
-8 -6 8 -8 67 6 67 16 0 4 -10 6 -22 3 -22 -4 -23 -4 -4 11 22 17 20 18 -54 6z"/>
<path d="M3247 3739 c-4 -15 0 -19 21 -19 21 0 24 2 12 10 -12 8 -10 10 10 11
14 1 31 2 37 2 7 -1 10 3 8 7 -3 5 -23 8 -44 8 -30 0 -40 -5 -44 -19z"/>
<path d="M2385 3670 c3 -5 8 -10 11 -10 2 0 4 5 4 10 0 6 -5 10 -11 10 -5 0
-7 -4 -4 -10z"/>
<path d="M2791 3664 c0 -11 3 -14 6 -6 3 7 2 16 -1 19 -3 4 -6 -2 -5 -13z"/>
<path d="M1871 3654 c0 -11 3 -14 6 -6 3 7 2 16 -1 19 -3 4 -6 -2 -5 -13z"/>
<path d="M1776 3643 c-6 -14 -5 -15 5 -6 7 7 10 15 7 18 -3 3 -9 -2 -12 -12z"/>
<path d="M2176 3643 c-6 -14 -5 -15 5 -6 7 7 10 15 7 18 -3 3 -9 -2 -12 -12z"/>
<path d="M2936 3643 c-6 -14 -5 -15 5 -6 7 7 10 15 7 18 -3 3 -9 -2 -12 -12z"/>
<path d="M1734 3628 l-19 -23 23 19 c21 18 27 26 19 26 -2 0 -12 -10 -23 -22z"/>
<path d="M1996 3633 c-6 -14 -5 -15 5 -6 7 7 10 15 7 18 -3 3 -9 -2 -12 -12z"/>
<path d="M2400 3641 c0 -6 4 -13 10 -16 6 -3 7 1 4 9 -7 18 -14 21 -14 7z"/>
<path d="M2731 3634 c0 -11 3 -14 6 -6 3 7 2 16 -1 19 -3 4 -6 -2 -5 -13z"/>
</g>
</svg>
